HIERARCHY
ROOT root
{
	OFFSET 0.000000 0.000000 0.000000
	CHANNELS 6 Xposition Yposition Zposition Zrotation Yrotation Xrotation
	JOINT lhip
	{
		OFFSET 0.058581 -0.082280 -0.017664
		CHANNELS 3 Zrotation Yrotation Xrotation
		JOINT lknee
		{
			OFFSET 0.043451 -0.386469 0.008037
			CHANNELS 3 Zrotation Yrotation Xrotation
			JOINT lankle
			{
				OFFSET -0.014790 -0.426874 -0.037428
				CHANNELS 3 Zrotation Yrotation Xrotation
				JOINT ltoe
				{
					OFFSET 0.041054 -0.060286 0.122042
					CHANNELS 3 Zrotation Yrotation Xrotation
					End Site
					{
						OFFSET 0.000000 0.000000 0.000000
					}
				}
			}
		}
	}
	JOINT rhip
	{
		OFFSET -0.060310 -0.090513 -0.013543
		CHANNELS 3 Zrotation Yrotation Xrotation
		JOINT rknee
		{
			OFFSET -0.043257 -0.383688 -0.004843
			CHANNELS 3 Zrotation Yrotation Xrotation
			JOINT rankle
			{
				OFFSET 0.019056 -0.420046 -0.034562
				CHANNELS 3 Zrotation Yrotation Xrotation
				JOINT rtoe
				{
					OFFSET -0.034840 -0.062106 0.130323
					CHANNELS 3 Zrotation Yrotation Xrotation
					End Site
					{
						OFFSET 0.000000 0.000000 0.000000
					}
				}
			}
		}
	}
	JOINT lowerback
	{
		OFFSET 0.004439 0.124404 -0.038385
		CHANNELS 3 Zrotation Yrotation Xrotation
		JOINT upperback
		{
			OFFSET 0.004488 0.137956 0.026820
			CHANNELS 3 Zrotation Yrotation Xrotation
			JOINT chest
			{
				OFFSET -0.002265 0.056032 0.002855
				CHANNELS 3 Zrotation Yrotation Xrotation
				JOINT lowerneck
				{
					OFFSET -0.013390 0.211636 -0.033468
					CHANNELS 3 Zrotation Yrotation Xrotation
					JOINT upperneck
					{
						OFFSET 0.010113 0.088937 0.050410
						CHANNELS 3 Zrotation Yrotation Xrotation
						End Site
						{
							OFFSET 0.000000 0.000000 0.000000
						}
					}
				}
				JOINT lclavicle
				{
					OFFSET 0.071702 0.114000 -0.018898
					CHANNELS 3 Zrotation Yrotation Xrotation
					JOINT lshoulder
					{
						OFFSET 0.122921 0.045205 -0.019046
						CHANNELS 3 Zrotation Yrotation Xrotation
						JOINT lelbow
						{
							OFFSET 0.255332 -0.015649 -0.022946
							CHANNELS 3 Zrotation Yrotation Xrotation
							JOINT lwrist
							{
								OFFSET 0.265709 0.012698 -0.007375
								CHANNELS 3 Zrotation Yrotation Xrotation
								End Site
								{
									OFFSET 0.000000 0.000000 0.000000
								}
							}
						}
					}
				}
				JOINT rclavicle
				{
					OFFSET -0.082954 0.112472 -0.023707
					CHANNELS 3 Zrotation Yrotation Xrotation
					JOINT rshoulder
					{
						OFFSET -0.113228 0.046853 -0.008472
						CHANNELS 3 Zrotation Yrotation Xrotation
						JOINT relbow
						{
							OFFSET -0.260127 -0.014369 -0.031269
							CHANNELS 3 Zrotation Yrotation Xrotation
							JOINT rwrist
							{
								OFFSET -0.269108 0.006794 -0.006027
								CHANNELS 3 Zrotation Yrotation Xrotation
								End Site
								{
									OFFSET 0.000000 0.000000 0.000000
								}
							}
						}
					}
				}
			}
		}
	}
}
MOTION
Frames: 13
Frame Time: 0.033333
0.582672 -0.955840 0.987668 -83.549628 1.797592 88.791138 1.476648 0.682441 -1.160937 -5.996448 -9.067329 11.570947 1.437125 11.799302 -17.977842 0.000000 -0.000000 0.000000 -7.231327 -4.804410 -16.631173 -3.131745 -3.501817 37.678713 4.199586 -13.894124 -21.655450 0.000000 -0.000000 0.000000 -0.667925 -1.307502 12.339325 2.265264 -0.544785 -3.621130 -0.066456 0.269958 6.221869 -2.978241 18.409323 2.295771 -4.370642 8.659211 19.170642 -13.884015 10.298951 -4.121736 -27.879167 -15.399529 -9.029951 24.605865 -29.474702 -34.655677 14.619084 -8.358070 -30.984870 25.800376 -9.495623 -0.499289 51.710746 4.015370 9.837813 -18.781230 15.201310 -20.834514 4.748777 5.383400 -15.948222 
0.575233 -0.964960 0.989180 -78.237498 1.649788 87.810638 1.165193 -0.072787 0.778238 -6.318987 -12.650626 10.650119 1.052827 10.934475 -17.931955 0.000000 -0.000000 0.000000 -6.702423 -1.823483 -17.653809 -0.832732 -2.013307 42.963592 5.339626 -10.060050 -21.153758 0.000000 -0.000000 0.000000 -1.256445 -2.372572 13.694333 2.962316 -0.751242 -3.139261 -0.075296 -0.047119 5.747735 -1.741662 17.840428 2.558355 -4.433894 6.441610 19.555254 -14.182816 9.336774 -4.500991 -28.082167 -16.436628 -8.250880 27.823986 -30.100407 -38.348188 13.658881 -9.022429 -30.986686 26.634096 -8.044602 -1.245018 54.760860 4.437733 10.936100 -16.504580 11.114199 -21.289968 6.903303 5.409983 -18.111431 
0.567898 -0.973122 0.989996 -73.755760 1.465150 87.732570 0.921939 -1.289164 1.652212 -6.790898 -15.485377 9.859824 1.052700 10.850002 -18.163678 0.000000 -0.000000 0.000000 -5.835080 0.246156 -20.613938 1.754468 -0.996631 48.047369 6.265734 -6.176088 -20.734444 0.000000 -0.000000 0.000000 -1.770807 -3.148579 14.729477 3.467309 -0.599818 -3.531941 0.057740 -0.349124 5.352061 -1.190083 16.564508 3.143774 -4.567852 4.358776 18.867306 -14.615181 8.922206 -4.838325 -29.680256 -17.436282 -6.408315 30.578093 -32.128184 -41.318737 14.373872 -8.196882 -33.102266 27.259331 -7.411081 -1.858321 56.937777 4.418999 12.358817 -15.229454 10.518059 -19.955947 8.077822 5.195323 -18.305290 
0.557407 -0.981401 0.990793 -69.271448 1.419889 87.891752 1.137431 -2.145265 2.515288 -7.100045 -17.785796 8.976008 0.895496 9.658758 -17.876614 0.000000 -0.000000 0.000000 -5.021418 1.646894 -23.328672 4.228941 -0.739861 51.051906 7.059042 -3.067715 -19.969113 0.000000 -0.000000 0.000000 -2.100749 -3.995780 14.405213 4.025865 -0.732755 -2.681986 -0.045213 -0.809466 5.649876 0.741953 15.708993 2.531433 -5.834134 2.934415 19.491626 -15.963380 9.060427 -5.848989 -31.024982 -18.285188 -4.136979 31.996317 -33.998080 -42.001275 15.807122 -7.907143 -32.625367 28.428592 -7.063408 -3.045755 57.836953 4.679262 14.769864 -14.709200 12.241298 -18.075549 7.055351 5.637748 -17.345805 
0.544035 -0.988543 0.991417 -65.167797 1.477041 87.956059 1.896935 -2.135982 3.543792 -7.656003 -20.630293 8.476465 0.412858 8.261092 -17.841171 0.000000 -0.000000 0.000000 -3.859252 2.116758 -25.756395 6.161301 -0.406181 52.044480 7.280497 -0.574323 -19.833993 0.000000 -0.000000 0.000000 -2.575415 -4.744663 14.971086 4.424088 -1.334740 -3.589184 -0.050632 -0.385568 4.737522 0.709486 14.140530 4.275453 -3.378684 0.258177 19.006493 -16.423097 8.928515 -4.696538 -33.255089 -17.993609 -1.930062 31.829028 -36.859817 -41.442355 18.700432 -6.847278 -33.720673 29.100032 -6.869376 -1.992581 57.898936 3.953791 15.024745 -14.174620 16.613834 -14.832505 4.767613 5.623901 -16.831239 
0.536364 -0.995971 0.990730 -62.461443 1.085260 88.192018 1.468492 -2.800510 3.937301 -7.552472 -21.588376 7.974699 0.773467 7.631547 -17.887289 0.000000 -0.000000 0.000000 -3.646532 2.888149 -29.048523 7.182517 -0.981767 51.608158 7.864736 0.828029 -19.150217 0.000000 -0.000000 0.000000 -2.910995 -4.770426 15.270575 4.284118 -0.840892 -2.639398 -0.115991 -0.910370 4.576632 1.302069 12.424584 3.383789 -3.383057 -2.192976 18.289129 -16.757858 8.641226 -4.414690 -36.730930 -17.900893 0.360463 32.174331 -38.587186 -38.393573 16.589977 -7.973379 -31.818480 28.446821 -6.376141 -2.484846 58.482344 4.114183 16.306857 -14.304052 22.052177 -11.457931 5.131192 6.142191 -15.907408 
0.523556 -1.003602 0.989519 -59.994240 0.992290 88.200847 1.733784 -2.507599 4.929608 -7.508609 -22.889860 7.607993 0.426582 6.333619 -18.223226 0.000000 -0.000000 0.000000 -3.086599 3.350909 -30.918893 6.963814 -2.142888 48.481211 7.685206 0.983408 -19.477180 0.000000 -0.000000 0.000000 -2.967044 -5.142915 15.365578 3.948970 -0.728570 -1.851487 -0.340779 -1.087091 4.450325 2.427270 10.879926 3.274156 -3.068409 -3.860022 18.267668 -17.581784 8.457170 -3.925033 -39.115174 -16.868042 2.371466 30.201344 -39.936485 -34.021684 15.759109 -9.187535 -29.119162 27.948580 -5.566294 -2.313472 58.236634 4.227753 17.118553 -14.337358 27.241983 -8.707810 4.262364 7.765830 -14.635020 
0.509681 -1.011414 0.988538 -57.921776 0.877237 88.383687 1.854246 -2.231075 5.649083 -7.378490 -23.346465 7.512337 -0.029074 4.946359 -18.689149 0.000000 -0.000000 0.000000 -2.547157 3.586942 -32.036896 5.921106 -3.878824 43.177909 7.725156 -0.056042 -19.410535 0.000000 -0.000000 0.000000 -2.770148 -5.419136 15.954390 3.323050 -0.744453 -2.018492 -0.538000 -1.286795 4.106059 2.897814 9.457211 3.456095 -2.632866 -4.466046 17.549252 -18.474435 8.650664 -3.184805 -41.691259 -15.571726 4.099454 26.831570 -41.003936 -28.074299 12.467856 -10.342915 -27.334231 26.929272 -5.468179 -2.406070 57.930694 4.569923 17.445820 -14.769281 32.067859 -6.376703 5.732360 8.051263 -14.718598 
0.496082 -1.019825 0.986663 -56.692101 0.642459 89.124370 1.499672 -2.242638 5.757878 -6.997892 -23.119414 7.644900 -0.252463 4.100536 -19.042831 0.000000 -0.000000 0.000000 -2.218697 3.689765 -33.161545 4.848896 -6.341114 36.400862 7.810781 -2.353877 -19.282118 0.000000 -0.000000 0.000000 -2.250082 -5.584636 15.849670 2.553453 -0.281326 -1.939592 -0.886189 -1.626481 4.463999 4.149180 7.822261 2.811488 -3.682595 -4.923159 17.902173 -19.999453 9.204247 -3.607922 -44.158241 -14.649951 5.815286 22.700938 -40.479680 -20.649556 7.395198 -12.064524 -23.073965 25.865076 -5.390442 -2.909954 57.658660 5.380599 18.024659 -16.095915 35.737776 -6.606704 6.574984 8.768934 -14.953047 
0.479498 -1.027813 0.983156 -55.534640 0.422808 89.651580 1.503449 -1.768724 6.056702 -6.970076 -22.607517 8.121123 -0.333799 2.873369 -19.594329 0.000000 -0.000000 0.000000 -1.111381 3.203230 -33.087429 2.833545 -9.041328 28.415974 7.257286 -5.056994 -18.975992 0.000000 -0.000000 0.000000 -2.120485 -5.182415 15.735472 2.015137 -0.391742 -1.815368 -1.044095 -1.458524 3.911552 4.646260 5.760092 3.568389 -2.937638 -6.231247 17.657796 -20.504792 9.104007 -2.246956 -46.913229 -13.555697 7.039206 18.296334 -39.143334 -12.670696 0.874759 -13.449283 -19.958610 24.764099 -5.369939 -2.459273 57.361588 5.779777 16.925163 -18.234592 38.430494 -7.275305 8.222128 9.384255 -15.928039 
0.463737 -1.037093 0.979199 -55.711055 -0.288539 90.184116 0.647346 -0.913692 6.905649 -6.391462 -21.575399 7.805511 -0.191457 1.978935 -19.877353 0.000000 -0.000000 0.000000 0.133693 2.436398 -32.315293 1.341056 -11.429699 19.317789 7.112661 -7.742019 -17.042726 0.000000 -0.000000 0.000000 -2.239303 -4.751011 15.917609 0.938261 0.183736 -2.022552 -1.070747 -1.148137 3.733825 4.627648 3.564338 4.073698 -1.674028 -7.136835 16.630897 -20.943261 8.904151 -1.620973 -49.461421 -12.170251 7.976876 13.803683 -36.524751 -5.863050 -0.879296 -13.009257 -16.572624 23.643821 -4.733781 -2.093399 56.512797 6.539210 15.754612 -19.779379 40.186923 -9.285534 6.667675 9.249717 -17.881738 
0.442794 -1.046289 0.974946 -55.545391 -1.001751 90.363995 0.176670 -0.187698 8.252074 -6.350754 -21.157740 7.667825 -0.177708 1.277318 -20.436734 0.000000 -0.000000 0.000000 1.821479 1.351105 -30.609631 -0.210557 -13.620514 11.036042 5.893301 -10.382890 -15.480896 0.000000 -0.000000 0.000000 -2.773609 -3.736759 15.232697 0.344921 0.157034 -0.912891 -0.875133 -1.111039 3.429200 4.195043 1.132848 4.523124 -0.690652 -8.871931 15.208905 -21.047730 8.272660 -0.336224 -52.316851 -11.071745 8.498718 11.107118 -32.894810 -0.944027 -4.329134 -13.182448 -15.238280 22.682980 -4.258532 -1.537447 56.187441 7.356766 13.988637 -22.723075 40.880579 -11.288983 6.275922 9.534742 -17.474596 
0.421721 -1.057032 0.970887 -54.915185 -1.915389 90.781719 -0.712060 0.137604 8.593186 -6.333095 -21.080732 9.258602 0.030370 0.543175 -21.272488 0.000000 -0.000000 0.000000 2.786805 -0.319733 -29.240022 -1.318937 -16.197918 6.209077 6.178258 -11.652895 -15.675585 0.000000 -0.000000 0.000000 -2.507328 -3.676369 15.961547 -0.515915 -0.645832 -2.833116 -1.299659 -0.790218 3.791326 4.262996 -0.644983 4.837961 -0.270483 -9.745808 15.300174 -20.864416 9.347712 -0.399713 -54.936895 -9.642960 8.614892 7.885132 -28.305435 3.249418 -5.686638 -12.575653 -14.455759 21.689083 -4.658435 -1.781454 56.228929 8.013134 12.889911 -24.935921 41.272533 -12.634268 5.980588 9.247415 -17.057081 
